<svg width="63" height="63" viewBox="0 0 63 63" fill="none" xmlns="http://www.w3.org/2000/svg">
<path d="M31.601 1C48.301 1 61.801 14.5 61.801 31.2C61.801 47.9 48.301 61.4 31.601 61.4C14.9009 61.4 1.40094 47.9 1.40094 31.2C1.30094 14.5 14.9009 1 31.601 1Z" stroke="url(#paint0_linear)" stroke-width="1.949"/>
<path d="M43.202 38.6C42.902 32.9 35.302 30.3 34.602 30C34.602 30 34.602 30 34.602 29.9L42.402 22.4V21.6C42.402 21.5 42.302 21.4 42.202 21.4H27.902V16.9V15.5L22.602 16.6V17.4H22.902C22.902 17.4 24.202 17.4 24.202 18.6V21.4H20.102C20.002 21.4 20.002 21.5 20.002 21.5V23.3H24.302V27.4V32.9C24.302 35.9 26.302 38 29.902 37.7C30.702 37.6 31.302 37.4 31.902 37C32.202 36.8 32.302 36.6 32.302 36.3V35.4C31.102 36.1 30.202 36.1 30.202 36.1C28.002 36.1 28.002 33.4 28.002 33.4V23.5H38.302L30.902 30.6C30.902 31.5 30.902 32.3 30.902 32.3C37.702 33.4 39.602 37.6 39.602 38.8C39.602 38.8 40.302 44.8 34.102 45.2C34.102 45.2 30.002 45.4 29.302 43.8C29.302 43.7 29.302 43.7 29.402 43.7C30.102 43.4 30.502 42.8 30.502 42.1C30.502 40.9 29.802 40 28.202 40C26.902 40 25.902 40.9 25.902 42.1C25.902 42.1 25.302 47.1 34.102 47C43.902 46.6 43.202 38.6 43.202 38.6Z" fill="url(#paint1_linear)"/>
<defs>
<linearGradient id="paint0_linear" x1="61.801" y1="28.2392" x2="1.40039" y2="28.2392" gradientUnits="userSpaceOnUse">
<stop stop-color="#0F61FF"/>
<stop offset="1" stop-color="#1161FE"/>
</linearGradient>
<linearGradient id="paint1_linear" x1="43.2129" y1="29.7065" x2="20.002" y2="29.7065" gradientUnits="userSpaceOnUse">
<stop stop-color="#0F61FF"/>
<stop offset="1" stop-color="#1161FE"/>
</linearGradient>
</defs>
</svg>
